<svg width="1546" height="439" viewBox="0 0 1546 439" fill="none" xmlns="http://www.w3.org/2000/svg">
<g opacity="0.8" filter="url(#filter0_f_2013_3)">
<path d="M60 379L421.5 83.6343H1124L1485.5 379H60Z" fill="url(#paint0_linear_2013_3)" fill-opacity="0.9"/>
</g>
<g filter="url(#filter1_f_2013_3)">
<path d="M411 228.2V82H1136V228.2C848.91 292.444 690.026 294.817 411 228.2Z" fill="url(#paint1_linear_2013_3)" fill-opacity="0.3"/>
</g>
<g filter="url(#filter2_d_2013_3)">
<path d="M645.883 243.734H630.329C630.045 241.722 629.465 239.935 628.589 238.372C627.713 236.786 626.588 235.437 625.215 234.324C623.842 233.211 622.256 232.359 620.456 231.767C618.681 231.175 616.751 230.879 614.668 230.879C610.904 230.879 607.625 231.814 604.831 233.685C602.038 235.531 599.872 238.23 598.333 241.781C596.794 245.309 596.025 249.594 596.025 254.636C596.025 259.821 596.794 264.177 598.333 267.705C599.895 271.232 602.073 273.895 604.867 275.695C607.661 277.494 610.892 278.393 614.562 278.393C616.621 278.393 618.527 278.121 620.279 277.577C622.055 277.032 623.629 276.239 625.002 275.197C626.375 274.132 627.511 272.842 628.411 271.327C629.334 269.812 629.974 268.083 630.329 266.142L645.883 266.213C645.48 269.551 644.474 272.771 642.864 275.872C641.278 278.95 639.135 281.708 636.437 284.146C633.761 286.561 630.565 288.479 626.849 289.899C623.155 291.296 618.977 291.994 614.313 291.994C607.826 291.994 602.026 290.527 596.912 287.591C591.823 284.655 587.798 280.406 584.839 274.842C581.903 269.279 580.435 262.544 580.435 254.636C580.435 246.705 581.927 239.958 584.91 234.395C587.893 228.831 591.941 224.594 597.055 221.682C602.168 218.746 607.921 217.278 614.313 217.278C618.527 217.278 622.433 217.87 626.032 219.054C629.654 220.238 632.862 221.966 635.655 224.239C638.449 226.488 640.722 229.246 642.474 232.513C644.249 235.78 645.385 239.52 645.883 243.734ZM681.27 292.065C675.754 292.065 670.983 290.893 666.959 288.55C662.958 286.182 659.868 282.892 657.69 278.678C655.512 274.44 654.423 269.527 654.423 263.94C654.423 258.306 655.512 253.382 657.69 249.168C659.868 244.93 662.958 241.639 666.959 239.295C670.983 236.928 675.754 235.744 681.27 235.744C686.786 235.744 691.544 236.928 695.545 239.295C699.57 241.639 702.671 244.93 704.849 249.168C707.027 253.382 708.116 258.306 708.116 263.94C708.116 269.527 707.027 274.44 704.849 278.678C702.671 282.892 699.57 286.182 695.545 288.55C691.544 290.893 686.786 292.065 681.27 292.065ZM681.341 280.347C683.85 280.347 685.945 279.636 687.626 278.216C689.307 276.772 690.574 274.807 691.426 272.321C692.302 269.835 692.74 267.006 692.74 263.834C692.74 260.661 692.302 257.832 691.426 255.347C690.574 252.861 689.307 250.896 687.626 249.452C685.945 248.008 683.85 247.286 681.341 247.286C678.808 247.286 676.677 248.008 674.949 249.452C673.244 250.896 671.954 252.861 671.078 255.347C670.226 257.832 669.8 260.661 669.8 263.834C669.8 267.006 670.226 269.835 671.078 272.321C671.954 274.807 673.244 276.772 674.949 278.216C676.677 279.636 678.808 280.347 681.341 280.347ZM733.081 259.466V291H717.953V236.455H732.371V246.078H733.01C734.217 242.906 736.241 240.396 739.082 238.55C741.923 236.679 745.368 235.744 749.416 235.744C753.204 235.744 756.506 236.573 759.324 238.23C762.141 239.887 764.331 242.255 765.893 245.332C767.456 248.386 768.237 252.032 768.237 256.27V291H753.109V258.969C753.133 255.631 752.281 253.027 750.552 251.156C748.824 249.262 746.445 248.315 743.415 248.315C741.379 248.315 739.579 248.753 738.017 249.629C736.478 250.505 735.271 251.784 734.395 253.464C733.542 255.122 733.104 257.122 733.081 259.466ZM809.173 236.455V247.818H776.325V236.455H809.173ZM783.782 223.386H798.91V274.239C798.91 275.635 799.123 276.724 799.549 277.506C799.975 278.263 800.567 278.796 801.325 279.104C802.106 279.411 803.006 279.565 804.024 279.565C804.734 279.565 805.444 279.506 806.154 279.388C806.865 279.246 807.409 279.139 807.788 279.068L810.167 290.325C809.41 290.562 808.344 290.834 806.971 291.142C805.598 291.473 803.929 291.675 801.964 291.746C798.318 291.888 795.122 291.402 792.376 290.29C789.653 289.177 787.535 287.449 786.019 285.105C784.504 282.761 783.758 279.802 783.782 276.227V223.386ZM834.581 292.03C831.101 292.03 828 291.426 825.277 290.219C822.555 288.988 820.4 287.177 818.814 284.786C817.252 282.371 816.47 279.364 816.47 275.766C816.47 272.735 817.027 270.19 818.139 268.131C819.252 266.071 820.767 264.414 822.685 263.159C824.602 261.904 826.78 260.957 829.219 260.318C831.681 259.679 834.262 259.229 836.96 258.969C840.133 258.637 842.69 258.33 844.631 258.045C846.572 257.738 847.981 257.288 848.857 256.696C849.733 256.104 850.171 255.228 850.171 254.068V253.855C850.171 251.606 849.46 249.866 848.04 248.635C846.643 247.404 844.655 246.788 842.074 246.788C839.352 246.788 837.185 247.392 835.575 248.599C833.966 249.783 832.9 251.275 832.379 253.074L818.388 251.938C819.098 248.623 820.495 245.759 822.578 243.344C824.662 240.905 827.349 239.035 830.639 237.733C833.954 236.407 837.789 235.744 842.145 235.744C845.175 235.744 848.075 236.099 850.845 236.81C853.639 237.52 856.113 238.621 858.267 240.112C860.445 241.604 862.162 243.521 863.416 245.865C864.671 248.185 865.298 250.967 865.298 254.21V291H850.952V283.436H850.526C849.65 285.141 848.478 286.644 847.01 287.946C845.542 289.224 843.779 290.231 841.719 290.964C839.659 291.675 837.28 292.03 834.581 292.03ZM838.914 281.589C841.139 281.589 843.104 281.152 844.808 280.276C846.513 279.376 847.851 278.169 848.821 276.653C849.792 275.138 850.277 273.422 850.277 271.504V265.716C849.804 266.024 849.153 266.308 848.324 266.568C847.519 266.805 846.608 267.03 845.59 267.243C844.572 267.432 843.554 267.61 842.536 267.776C841.518 267.918 840.594 268.048 839.766 268.166C837.99 268.427 836.44 268.841 835.114 269.409C833.788 269.977 832.758 270.747 832.024 271.717C831.29 272.664 830.923 273.848 830.923 275.268C830.923 277.328 831.669 278.902 833.161 279.991C834.676 281.057 836.593 281.589 838.914 281.589ZM906.048 236.455V247.818H873.2V236.455H906.048ZM880.657 223.386H895.785V274.239C895.785 275.635 895.998 276.724 896.424 277.506C896.85 278.263 897.442 278.796 898.2 279.104C898.981 279.411 899.881 279.565 900.899 279.565C901.609 279.565 902.319 279.506 903.029 279.388C903.74 279.246 904.284 279.139 904.663 279.068L907.042 290.325C906.285 290.562 905.219 290.834 903.846 291.142C902.473 291.473 900.804 291.675 898.839 291.746C895.193 291.888 891.997 291.402 889.251 290.29C886.528 289.177 884.41 287.449 882.894 285.105C881.379 282.761 880.633 279.802 880.657 276.227V223.386ZM939.961 292.065C934.445 292.065 929.675 290.893 925.65 288.55C921.649 286.182 918.56 282.892 916.382 278.678C914.204 274.44 913.115 269.527 913.115 263.94C913.115 258.306 914.204 253.382 916.382 249.168C918.56 244.93 921.649 241.639 925.65 239.295C929.675 236.928 934.445 235.744 939.961 235.744C945.477 235.744 950.236 236.928 954.237 239.295C958.261 241.639 961.363 244.93 963.541 249.168C965.719 253.382 966.808 258.306 966.808 263.94C966.808 269.527 965.719 274.44 963.541 278.678C961.363 282.892 958.261 286.182 954.237 288.55C950.236 290.893 945.477 292.065 939.961 292.065ZM940.032 280.347C942.542 280.347 944.637 279.636 946.318 278.216C947.999 276.772 949.265 274.807 950.117 272.321C950.993 269.835 951.431 267.006 951.431 263.834C951.431 260.661 950.993 257.832 950.117 255.347C949.265 252.861 947.999 250.896 946.318 249.452C944.637 248.008 942.542 247.286 940.032 247.286C937.499 247.286 935.368 248.008 933.64 249.452C931.936 250.896 930.645 252.861 929.769 255.347C928.917 257.832 928.491 260.661 928.491 263.834C928.491 267.006 928.917 269.835 929.769 272.321C930.645 274.807 931.936 276.772 933.64 278.216C935.368 279.636 937.499 280.347 940.032 280.347Z" fill="url(#paint2_linear_2013_3)" shape-rendering="crispEdges"/>
</g>
<g filter="url(#filter3_d_2013_3)">
<rect x="398" y="2" width="750" height="81" rx="20" fill="url(#paint3_linear_2013_3)" shape-rendering="crispEdges"/>
<rect x="398.5" y="2.5" width="749" height="80" rx="19.5" stroke="url(#paint4_linear_2013_3)" stroke-opacity="0.7" shape-rendering="crispEdges"/>
</g>
<defs>
<filter id="filter0_f_2013_3" x="0" y="23.6343" width="1545.5" height="415.366" filterUnits="userSpaceOnUse" color-interpolation-filters="sRGB">
<feFlood flood-opacity="0" result="BackgroundImageFix"/>
<feBlend mode="normal" in="SourceGraphic" in2="BackgroundImageFix" result="shape"/>
<feGaussianBlur stdDeviation="30" result="effect1_foregroundBlur_2013_3"/>
</filter>
<filter id="filter1_f_2013_3" x="361" y="32" width="825" height="295.276" filterUnits="userSpaceOnUse" color-interpolation-filters="sRGB">
<feFlood flood-opacity="0" result="BackgroundImageFix"/>
<feBlend mode="normal" in="SourceGraphic" in2="BackgroundImageFix" result="shape"/>
<feGaussianBlur stdDeviation="25" result="effect1_foregroundBlur_2013_3"/>
</filter>
<filter id="filter2_d_2013_3" x="576.435" y="217.278" width="394.373" height="82.7871" filterUnits="userSpaceOnUse" color-interpolation-filters="sRGB">
<feFlood flood-opacity="0" result="BackgroundImageFix"/>
<feColorMatrix in="SourceAlpha" type="matrix" values="0 0 0 0 0 0 0 0 0 0 0 0 0 0 0 0 0 0 127 0" result="hardAlpha"/>
<feOffset dy="4"/>
<feGaussianBlur stdDeviation="2"/>
<feComposite in2="hardAlpha" operator="out"/>
<feColorMatrix type="matrix" values="0 0 0 0 0 0 0 0 0 0 0 0 0 0 0 0 0 0 0.25 0"/>
<feBlend mode="normal" in2="BackgroundImageFix" result="effect1_dropShadow_2013_3"/>
<feBlend mode="normal" in="SourceGraphic" in2="effect1_dropShadow_2013_3" result="shape"/>
</filter>
<filter id="filter3_d_2013_3" x="392" y="0" width="762" height="93" filterUnits="userSpaceOnUse" color-interpolation-filters="sRGB">
<feFlood flood-opacity="0" result="BackgroundImageFix"/>
<feColorMatrix in="SourceAlpha" type="matrix" values="0 0 0 0 0 0 0 0 0 0 0 0 0 0 0 0 0 0 127 0" result="hardAlpha"/>
<feOffset dy="4"/>
<feGaussianBlur stdDeviation="3"/>
<feComposite in2="hardAlpha" operator="out"/>
<feColorMatrix type="matrix" values="0 0 0 0 0.85098 0 0 0 0 0.85098 0 0 0 0 0.85098 0 0 0 0.02 0"/>
<feBlend mode="normal" in2="BackgroundImageFix" result="effect1_dropShadow_2013_3"/>
<feBlend mode="normal" in="SourceGraphic" in2="effect1_dropShadow_2013_3" result="shape"/>
</filter>
<linearGradient id="paint0_linear_2013_3" x1="772.75" y1="83.6343" x2="772.75" y2="379" gradientUnits="userSpaceOnUse">
<stop stop-color="#00A45A" stop-opacity="0.68"/>
<stop offset="1" stop-color="#0C8A76" stop-opacity="0.06"/>
</linearGradient>
<linearGradient id="paint1_linear_2013_3" x1="773.5" y1="82" x2="773.5" y2="277.276" gradientUnits="userSpaceOnUse">
<stop stop-color="#00A45A"/>
<stop stop-color="#00A45A" stop-opacity="0.5"/>
<stop offset="0.283574" stop-color="#0C8A76" stop-opacity="0.15"/>
</linearGradient>
<linearGradient id="paint2_linear_2013_3" x1="773" y1="194" x2="773" y2="315" gradientUnits="userSpaceOnUse">
<stop stop-color="white" stop-opacity="0.53"/>
<stop offset="0.38" stop-color="white"/>
<stop offset="0.945" stop-opacity="0.22"/>
</linearGradient>
<linearGradient id="paint3_linear_2013_3" x1="773" y1="2" x2="773" y2="83" gradientUnits="userSpaceOnUse">
<stop stop-color="#2C2C2C" stop-opacity="0"/>
<stop offset="0.39" stop-color="#1C1C1C"/>
<stop offset="0.635" stop-color="#1C1C1C"/>
<stop offset="1" stop-opacity="0.5"/>
</linearGradient>
<linearGradient id="paint4_linear_2013_3" x1="773" y1="2" x2="773" y2="83" gradientUnits="userSpaceOnUse">
<stop offset="0.05" stop-color="#A5A5A5" stop-opacity="0.22"/>
<stop offset="1"/>
</linearGradient>
</defs>
</svg>
