<svg width="678" height="522" viewBox="0 0 678 522" fill="none" xmlns="http://www.w3.org/2000/svg">
<circle cx="339.5" cy="350.5" r="91.6856" stroke="url(#paint0_linear_52_124)" stroke-width="1.5"/>
<circle cx="339.5" cy="350.5" r="170.75" stroke="url(#paint1_linear_52_124)" stroke-width="1.5"/>
<circle cx="54" cy="307" r="53.25" stroke="url(#paint2_linear_52_124)" stroke-width="1.5"/>
<circle cx="624" cy="307" r="53.25" stroke="url(#paint3_linear_52_124)" stroke-width="1.5"/>
<circle cx="138" cy="126" r="53.25" stroke="url(#paint4_linear_52_124)" stroke-width="1.5"/>
<circle cx="540" cy="126" r="53.25" stroke="url(#paint5_linear_52_124)" stroke-width="1.5"/>
<circle cx="339" cy="54" r="53.25" stroke="url(#paint6_linear_52_124)" stroke-width="1.5"/>
<path d="M169.833 396.189C169.549 393.324 168.329 391.099 166.175 389.513C164.021 387.927 161.097 387.134 157.404 387.134C154.894 387.134 152.775 387.489 151.047 388.199C149.319 388.885 147.993 389.844 147.07 391.075C146.17 392.306 145.721 393.703 145.721 395.266C145.673 396.568 145.945 397.704 146.537 398.675C147.153 399.645 147.993 400.486 149.059 401.196C150.124 401.883 151.355 402.486 152.752 403.007C154.149 403.504 155.64 403.93 157.226 404.286L163.76 405.848C166.933 406.558 169.845 407.505 172.496 408.689C175.148 409.873 177.444 411.329 179.385 413.057C181.327 414.785 182.83 416.821 183.895 419.165C184.984 421.509 185.541 424.196 185.564 427.226C185.541 431.677 184.404 435.536 182.155 438.803C179.93 442.046 176.71 444.567 172.496 446.366C168.306 448.142 163.251 449.03 157.333 449.03C151.462 449.03 146.348 448.13 141.992 446.331C137.659 444.532 134.274 441.868 131.836 438.341C129.421 434.79 128.154 430.398 128.036 425.166H142.915C143.081 427.605 143.779 429.641 145.01 431.274C146.265 432.884 147.934 434.103 150.017 434.932C152.124 435.737 154.504 436.139 157.155 436.139C159.759 436.139 162.02 435.76 163.938 435.003C165.879 434.245 167.382 433.192 168.448 431.842C169.513 430.493 170.046 428.942 170.046 427.19C170.046 425.557 169.56 424.184 168.59 423.071C167.643 421.958 166.246 421.011 164.4 420.23C162.577 419.449 160.339 418.739 157.688 418.099L149.769 416.111C143.637 414.619 138.796 412.287 135.245 409.115C131.694 405.943 129.93 401.67 129.953 396.295C129.93 391.892 131.102 388.045 133.469 384.754C135.86 381.464 139.139 378.895 143.306 377.048C147.472 375.202 152.207 374.278 157.51 374.278C162.908 374.278 167.619 375.202 171.644 377.048C175.692 378.895 178.841 381.464 181.09 384.754C183.339 388.045 184.499 391.857 184.57 396.189H169.833ZM220.481 449.065C214.87 449.065 210.04 447.929 205.992 445.656C201.968 443.36 198.866 440.116 196.688 435.926C194.51 431.712 193.421 426.729 193.421 420.976C193.421 415.365 194.51 410.441 196.688 406.203C198.866 401.965 201.932 398.663 205.886 396.295C209.863 393.928 214.527 392.744 219.877 392.744C223.476 392.744 226.826 393.324 229.927 394.484C233.052 395.621 235.774 397.337 238.094 399.634C240.438 401.93 242.261 404.818 243.563 408.298C244.865 411.755 245.516 415.803 245.516 420.443V424.598H199.458V415.223H231.276C231.276 413.045 230.803 411.116 229.856 409.435C228.909 407.754 227.595 406.44 225.914 405.493C224.257 404.522 222.327 404.037 220.126 404.037C217.829 404.037 215.793 404.57 214.018 405.635C212.266 406.677 210.893 408.085 209.898 409.861C208.904 411.613 208.395 413.566 208.371 415.72V424.634C208.371 427.332 208.869 429.664 209.863 431.629C210.881 433.594 212.313 435.109 214.16 436.175C216.006 437.24 218.196 437.773 220.729 437.773C222.41 437.773 223.949 437.536 225.346 437.062C226.743 436.589 227.938 435.879 228.933 434.932C229.927 433.985 230.684 432.825 231.205 431.452L245.197 432.375C244.487 435.737 243.031 438.672 240.829 441.182C238.651 443.668 235.834 445.609 232.377 447.006C228.944 448.379 224.979 449.065 220.481 449.065ZM255.388 448V393.455H270.055V402.972H270.623C271.617 399.586 273.286 397.029 275.63 395.301C277.974 393.549 280.673 392.673 283.727 392.673C284.484 392.673 285.301 392.721 286.177 392.815C287.053 392.91 287.822 393.04 288.485 393.206V406.629C287.775 406.416 286.792 406.227 285.538 406.061C284.283 405.895 283.135 405.812 282.093 405.812C279.868 405.812 277.879 406.298 276.127 407.268C274.399 408.215 273.026 409.541 272.008 411.246C271.013 412.95 270.516 414.915 270.516 417.141V448H255.388ZM348.819 393.455L329.749 448H312.704L293.634 393.455H309.614L320.942 432.482H321.511L332.803 393.455H348.819ZM356.56 448V393.455H371.688V448H356.56ZM364.16 386.423C361.911 386.423 359.981 385.678 358.371 384.186C356.785 382.671 355.992 380.86 355.992 378.753C355.992 376.67 356.785 374.882 358.371 373.391C359.981 371.875 361.911 371.118 364.16 371.118C366.409 371.118 368.326 371.875 369.913 373.391C371.522 374.882 372.327 376.67 372.327 378.753C372.327 380.86 371.522 382.671 369.913 384.186C368.326 385.678 366.409 386.423 364.16 386.423ZM408.451 449.065C402.864 449.065 398.058 447.882 394.034 445.514C390.033 443.123 386.955 439.809 384.801 435.571C382.67 431.333 381.605 426.456 381.605 420.94C381.605 415.353 382.682 410.453 384.836 406.239C387.014 402.001 390.104 398.698 394.105 396.331C398.106 393.94 402.864 392.744 408.38 392.744C413.139 392.744 417.306 393.608 420.88 395.337C424.455 397.065 427.284 399.491 429.368 402.616C431.451 405.741 432.599 409.411 432.812 413.625H418.537C418.134 410.902 417.069 408.713 415.341 407.055C413.636 405.375 411.399 404.534 408.629 404.534C406.285 404.534 404.237 405.173 402.485 406.452C400.757 407.706 399.408 409.541 398.437 411.956C397.467 414.371 396.981 417.295 396.981 420.727C396.981 424.207 397.455 427.167 398.402 429.605C399.372 432.044 400.734 433.902 402.485 435.18C404.237 436.459 406.285 437.098 408.629 437.098C410.357 437.098 411.908 436.743 413.281 436.033C414.678 435.322 415.826 434.293 416.725 432.943C417.649 431.57 418.252 429.925 418.537 428.007H432.812C432.575 432.174 431.439 435.843 429.403 439.016C427.391 442.164 424.609 444.626 421.058 446.402C417.507 448.178 413.305 449.065 408.451 449.065ZM404.9 447.716H411.86L411.292 450.805C413.731 451.184 415.719 452.096 417.258 453.54C418.821 454.984 419.614 456.949 419.637 459.435C419.661 462.962 418.028 465.768 414.737 467.851C411.446 469.958 406.83 471.011 400.887 471.011L400.745 464.264C403.728 464.264 406.06 463.897 407.741 463.163C409.446 462.453 410.333 461.34 410.404 459.825C410.452 458.381 409.895 457.28 408.735 456.523C407.575 455.765 405.764 455.232 403.302 454.925L404.9 447.716ZM467.143 449.065C461.627 449.065 456.856 447.893 452.832 445.55C448.831 443.182 445.741 439.892 443.563 435.678C441.385 431.44 440.296 426.527 440.296 420.94C440.296 415.306 441.385 410.382 443.563 406.168C445.741 401.93 448.831 398.639 452.832 396.295C456.856 393.928 461.627 392.744 467.143 392.744C472.659 392.744 477.417 393.928 481.418 396.295C485.443 398.639 488.544 401.93 490.722 406.168C492.9 410.382 493.989 415.306 493.989 420.94C493.989 426.527 492.9 431.44 490.722 435.678C488.544 439.892 485.443 443.182 481.418 445.55C477.417 447.893 472.659 449.065 467.143 449.065ZM467.214 437.347C469.723 437.347 471.818 436.636 473.499 435.216C475.18 433.772 476.447 431.807 477.299 429.321C478.175 426.835 478.613 424.006 478.613 420.834C478.613 417.661 478.175 414.832 477.299 412.347C476.447 409.861 475.18 407.896 473.499 406.452C471.818 405.008 469.723 404.286 467.214 404.286C464.681 404.286 462.55 405.008 460.822 406.452C459.117 407.896 457.827 409.861 456.951 412.347C456.099 414.832 455.673 417.661 455.673 420.834C455.673 424.006 456.099 426.835 456.951 429.321C457.827 431.807 459.117 433.772 460.822 435.216C462.55 436.636 464.681 437.347 467.214 437.347ZM549.21 409.009L535.36 409.861C535.123 408.677 534.614 407.612 533.833 406.665C533.052 405.694 532.022 404.925 530.744 404.357C529.489 403.765 527.986 403.469 526.234 403.469C523.89 403.469 521.913 403.966 520.303 404.96C518.693 405.931 517.888 407.233 517.888 408.866C517.888 410.169 518.409 411.269 519.451 412.169C520.493 413.069 522.28 413.791 524.813 414.335L534.685 416.324C539.988 417.413 543.942 419.165 546.546 421.58C549.15 423.994 550.452 427.167 550.452 431.097C550.452 434.671 549.399 437.808 547.292 440.507C545.209 443.206 542.344 445.313 538.698 446.828C535.076 448.32 530.897 449.065 526.163 449.065C518.942 449.065 513.189 447.562 508.904 444.555C504.643 441.525 502.145 437.406 501.411 432.197L516.29 431.416C516.74 433.618 517.829 435.299 519.558 436.459C521.286 437.595 523.499 438.163 526.198 438.163C528.85 438.163 530.98 437.654 532.59 436.636C534.224 435.595 535.052 434.257 535.076 432.624C535.052 431.25 534.472 430.126 533.336 429.25C532.2 428.35 530.448 427.664 528.08 427.19L518.634 425.308C513.308 424.243 509.342 422.396 506.738 419.768C504.157 417.141 502.867 413.791 502.867 409.719C502.867 406.215 503.814 403.196 505.708 400.663C507.626 398.13 510.313 396.177 513.769 394.804C517.249 393.431 521.321 392.744 525.985 392.744C532.874 392.744 538.296 394.2 542.249 397.112C546.227 400.024 548.547 403.99 549.21 409.009Z" fill="url(#paint7_linear_52_124)"/>
<defs>
<linearGradient id="paint0_linear_52_124" x1="339.5" y1="258.064" x2="339.5" y2="442.936" gradientUnits="userSpaceOnUse">
<stop stop-color="white"/>
<stop offset="0.62" stop-color="#3F3F3F" stop-opacity="0.04"/>
</linearGradient>
<linearGradient id="paint1_linear_52_124" x1="339.5" y1="179" x2="339.5" y2="522" gradientUnits="userSpaceOnUse">
<stop stop-color="white"/>
<stop offset="0.62" stop-color="#3F3F3F" stop-opacity="0.04"/>
</linearGradient>
<linearGradient id="paint2_linear_52_124" x1="54" y1="253" x2="54" y2="361" gradientUnits="userSpaceOnUse">
<stop stop-color="#D9D9D9"/>
<stop offset="1" stop-color="#3F3F3F" stop-opacity="0.02"/>
</linearGradient>
<linearGradient id="paint3_linear_52_124" x1="624" y1="253" x2="624" y2="361" gradientUnits="userSpaceOnUse">
<stop stop-color="#D9D9D9"/>
<stop offset="1" stop-color="#3F3F3F" stop-opacity="0.02"/>
</linearGradient>
<linearGradient id="paint4_linear_52_124" x1="138" y1="72" x2="138" y2="180" gradientUnits="userSpaceOnUse">
<stop stop-color="white"/>
<stop offset="0.995" stop-color="white" stop-opacity="0.41"/>
</linearGradient>
<linearGradient id="paint5_linear_52_124" x1="540" y1="72" x2="540" y2="180" gradientUnits="userSpaceOnUse">
<stop stop-color="white"/>
<stop offset="0.995" stop-color="white" stop-opacity="0.41"/>
</linearGradient>
<linearGradient id="paint6_linear_52_124" x1="339" y1="0" x2="339" y2="108" gradientUnits="userSpaceOnUse">
<stop stop-color="white"/>
<stop offset="0.995" stop-color="white" stop-opacity="0.41"/>
</linearGradient>
<linearGradient id="paint7_linear_52_124" x1="339" y1="351" x2="339" y2="472" gradientUnits="userSpaceOnUse">
<stop offset="0.37" stop-color="white"/>
<stop offset="0.935"/>
</linearGradient>
</defs>
</svg>
